<mxfile host="app.diagrams.net" modified="2021-09-26T00:05:31.801Z" agent="5.0 (Windows NT 10.0; Win64; x64) AppleWebKit/537.36 (KHTML, like Gecko) Chrome/93.0.4577.82 Safari/537.36" etag="Q5QU7TnsmhaYkuba5q-x" version="15.3.1" type="github">
  <diagram id="C5RBs43oDa-KdzZeNtuy" name="Page-1">
    <mxGraphModel dx="1503" dy="574" grid="1" gridSize="10" guides="1" tooltips="1" connect="1" arrows="1" fold="1" page="1" pageScale="1" pageWidth="827" pageHeight="1169" math="0" shadow="0">
      <root>
        <mxCell id="WIyWlLk6GJQsqaUBKTNV-0" />
        <mxCell id="WIyWlLk6GJQsqaUBKTNV-1" parent="WIyWlLk6GJQsqaUBKTNV-0" />
        <mxCell id="HTfLJjGdmCUncHQMvjyv-12" value="Order&#xa;" style="swimlane;fontStyle=1;align=center;verticalAlign=top;childLayout=stackLayout;horizontal=1;startSize=26;horizontalStack=0;resizeParent=1;resizeParentMax=0;resizeLast=0;collapsible=1;marginBottom=0;" vertex="1" parent="WIyWlLk6GJQsqaUBKTNV-1">
          <mxGeometry x="20" y="30" width="260" height="210" as="geometry" />
        </mxCell>
        <mxCell id="HTfLJjGdmCUncHQMvjyv-13" value="-id: int&#xa;+orderMenus: OrderMenu[]&#xa;+tableNo: int&#xa;+referenceNo: int&#xa;+totalPrice: float" style="text;strokeColor=none;fillColor=none;align=left;verticalAlign=top;spacingLeft=4;spacingRight=4;overflow=hidden;rotatable=0;points=[[0,0.5],[1,0.5]];portConstraint=eastwest;" vertex="1" parent="HTfLJjGdmCUncHQMvjyv-12">
          <mxGeometry y="26" width="260" height="74" as="geometry" />
        </mxCell>
        <mxCell id="HTfLJjGdmCUncHQMvjyv-14" value="" style="line;strokeWidth=1;fillColor=none;align=left;verticalAlign=middle;spacingTop=-1;spacingLeft=3;spacingRight=3;rotatable=0;labelPosition=right;points=[];portConstraint=eastwest;" vertex="1" parent="HTfLJjGdmCUncHQMvjyv-12">
          <mxGeometry y="100" width="260" height="20" as="geometry" />
        </mxCell>
        <mxCell id="HTfLJjGdmCUncHQMvjyv-15" value="+ AddOrderMenu(Menu menu, int quantity)&#xa;+RemoveOrderMenu(OrderMenu )&#xa;+GetTotalPrice()&#xa;+GetAllItems()&#xa;+Billout()" style="text;strokeColor=none;fillColor=none;align=left;verticalAlign=top;spacingLeft=4;spacingRight=4;overflow=hidden;rotatable=0;points=[[0,0.5],[1,0.5]];portConstraint=eastwest;" vertex="1" parent="HTfLJjGdmCUncHQMvjyv-12">
          <mxGeometry y="120" width="260" height="90" as="geometry" />
        </mxCell>
        <mxCell id="HTfLJjGdmCUncHQMvjyv-16" value="OrderMenu" style="swimlane;fontStyle=1;align=center;verticalAlign=top;childLayout=stackLayout;horizontal=1;startSize=26;horizontalStack=0;resizeParent=1;resizeParentMax=0;resizeLast=0;collapsible=1;marginBottom=0;" vertex="1" parent="WIyWlLk6GJQsqaUBKTNV-1">
          <mxGeometry x="490" y="30" width="260" height="210" as="geometry" />
        </mxCell>
        <mxCell id="HTfLJjGdmCUncHQMvjyv-17" value="-id: int&#xa;+menu: Menu&#xa;+quantity: int&#xa;+status: string&#xa;+totalPrice: float" style="text;strokeColor=none;fillColor=none;align=left;verticalAlign=top;spacingLeft=4;spacingRight=4;overflow=hidden;rotatable=0;points=[[0,0.5],[1,0.5]];portConstraint=eastwest;" vertex="1" parent="HTfLJjGdmCUncHQMvjyv-16">
          <mxGeometry y="26" width="260" height="74" as="geometry" />
        </mxCell>
        <mxCell id="HTfLJjGdmCUncHQMvjyv-18" value="" style="line;strokeWidth=1;fillColor=none;align=left;verticalAlign=middle;spacingTop=-1;spacingLeft=3;spacingRight=3;rotatable=0;labelPosition=right;points=[];portConstraint=eastwest;" vertex="1" parent="HTfLJjGdmCUncHQMvjyv-16">
          <mxGeometry y="100" width="260" height="20" as="geometry" />
        </mxCell>
        <mxCell id="HTfLJjGdmCUncHQMvjyv-19" value="+ GetMenu()&#xa;+IncreaseQuantity()&#xa;+DecreaseQuantity()" style="text;strokeColor=none;fillColor=none;align=left;verticalAlign=top;spacingLeft=4;spacingRight=4;overflow=hidden;rotatable=0;points=[[0,0.5],[1,0.5]];portConstraint=eastwest;" vertex="1" parent="HTfLJjGdmCUncHQMvjyv-16">
          <mxGeometry y="120" width="260" height="90" as="geometry" />
        </mxCell>
        <mxCell id="HTfLJjGdmCUncHQMvjyv-20" value="Menu" style="swimlane;fontStyle=1;align=center;verticalAlign=top;childLayout=stackLayout;horizontal=1;startSize=26;horizontalStack=0;resizeParent=1;resizeParentMax=0;resizeLast=0;collapsible=1;marginBottom=0;" vertex="1" parent="WIyWlLk6GJQsqaUBKTNV-1">
          <mxGeometry x="260" y="270" width="260" height="230" as="geometry" />
        </mxCell>
        <mxCell id="HTfLJjGdmCUncHQMvjyv-21" value="-id: int&#xa;+name: string&#xa;+classification: string&#xa;+isChefRecommendation: bool&#xa;+price: number&#xa;+preparationTime: number&#xa;+cookingTime: number" style="text;strokeColor=none;fillColor=none;align=left;verticalAlign=top;spacingLeft=4;spacingRight=4;overflow=hidden;rotatable=0;points=[[0,0.5],[1,0.5]];portConstraint=eastwest;" vertex="1" parent="HTfLJjGdmCUncHQMvjyv-20">
          <mxGeometry y="26" width="260" height="114" as="geometry" />
        </mxCell>
        <mxCell id="HTfLJjGdmCUncHQMvjyv-22" value="" style="line;strokeWidth=1;fillColor=none;align=left;verticalAlign=middle;spacingTop=-1;spacingLeft=3;spacingRight=3;rotatable=0;labelPosition=right;points=[];portConstraint=eastwest;" vertex="1" parent="HTfLJjGdmCUncHQMvjyv-20">
          <mxGeometry y="140" width="260" height="30" as="geometry" />
        </mxCell>
        <mxCell id="HTfLJjGdmCUncHQMvjyv-23" value="+GetAllByClassification(string classification)&#xa;+GetAllChefsRecommendation()&#xa;+GetFood(int id)" style="text;strokeColor=none;fillColor=none;align=left;verticalAlign=top;spacingLeft=4;spacingRight=4;overflow=hidden;rotatable=0;points=[[0,0.5],[1,0.5]];portConstraint=eastwest;" vertex="1" parent="HTfLJjGdmCUncHQMvjyv-20">
          <mxGeometry y="170" width="260" height="60" as="geometry" />
        </mxCell>
        <mxCell id="HTfLJjGdmCUncHQMvjyv-24" value="" style="line;strokeWidth=2;html=1;" vertex="1" parent="WIyWlLk6GJQsqaUBKTNV-1">
          <mxGeometry x="280" y="110" width="210" height="10" as="geometry" />
        </mxCell>
        <mxCell id="HTfLJjGdmCUncHQMvjyv-25" value="" style="shape=partialRectangle;whiteSpace=wrap;html=1;bottom=0;right=0;fillColor=none;direction=west;strokeWidth=2;" vertex="1" parent="WIyWlLk6GJQsqaUBKTNV-1">
          <mxGeometry x="520" y="240" width="70" height="140" as="geometry" />
        </mxCell>
        <mxCell id="HTfLJjGdmCUncHQMvjyv-28" value="1" style="text;html=1;strokeColor=none;fillColor=none;align=center;verticalAlign=middle;whiteSpace=wrap;rounded=0;" vertex="1" parent="WIyWlLk6GJQsqaUBKTNV-1">
          <mxGeometry x="280" y="120" width="40" height="20" as="geometry" />
        </mxCell>
        <mxCell id="HTfLJjGdmCUncHQMvjyv-29" value="1....*" style="text;html=1;strokeColor=none;fillColor=none;align=center;verticalAlign=middle;whiteSpace=wrap;rounded=0;" vertex="1" parent="WIyWlLk6GJQsqaUBKTNV-1">
          <mxGeometry x="440" y="80" width="40" height="20" as="geometry" />
        </mxCell>
        <mxCell id="HTfLJjGdmCUncHQMvjyv-30" value="1" style="text;html=1;strokeColor=none;fillColor=none;align=center;verticalAlign=middle;whiteSpace=wrap;rounded=0;" vertex="1" parent="WIyWlLk6GJQsqaUBKTNV-1">
          <mxGeometry x="600" y="250" width="40" height="20" as="geometry" />
        </mxCell>
        <mxCell id="HTfLJjGdmCUncHQMvjyv-31" value="1" style="text;html=1;strokeColor=none;fillColor=none;align=center;verticalAlign=middle;whiteSpace=wrap;rounded=0;" vertex="1" parent="WIyWlLk6GJQsqaUBKTNV-1">
          <mxGeometry x="520" y="340" width="40" height="20" as="geometry" />
        </mxCell>
      </root>
    </mxGraphModel>
  </diagram>
</mxfile>
